<?xml version="1.0" encoding="UTF-8"?>
<svg id="Layer_1" data-name="Layer 1" xmlns="http://www.w3.org/2000/svg" viewBox="0 0 2343.3338061 2343.3338653">
  <defs>
    <style>
      .cls-1 {
        fill: #64ccc5;
      }

      .cls-2 {
        fill: #176b87;
      }
    </style>
  </defs>
  <path class="cls-2" d="M2330.4789507,998.210461C2246.6410681,433.3680751,1759.8331182,0,1171.6782824,0,583.5006878,0,96.6674505,433.4414086,12.8548554,998.3343693c95.4675629-22.2756809,115.5938133-94.5319311,244.6000695-94.5319311,152.4653874,0,152.4653874,101.1496467,304.9307747,101.1496467,152.3920539,0,152.3920539-101.1496467,304.8068664-101.1496467,152.3665155,0,152.3665155,101.1496467,304.7335329,101.1496467,152.4148125,0,152.4148125-101.1496467,304.8321538-101.1496467,152.4148125,0,152.4148125,101.1496467,304.8321538,101.1496467,152.3895251,0,152.3895251-101.1496467,304.781579-101.1496467,128.7837269,0,149.0564241,72.0109622,244.106965,94.4080228Z"/>
  <path class="cls-1" d="M2054.4554798,982.0113451c13.13681,61.1930075,20.1995839,124.5834911,20.1995839,189.6555876,0,497.8939635-405.0916811,902.9881836-902.9881608,902.9881836-497.8939509,0-902.9881608-405.0942201-902.9881608-902.9881836,0-65.0720965,7.0880613-128.5131549,20.2248713-189.7314498-9.3335834-1.4059801-19.5322662-2.2708096-31.4600681-2.2708096-33.1163935,0-54.4769412,5.8287484-74.1578616,15.6554366-10.1503668,57.2936886-15.7565858,116.1400243-15.7565858,176.3468228,0,554.5681105,449.5694473,1004.1378303,1004.1378049,1004.1378303,554.5706252,0,1004.1378049-449.5697198,1004.1378049-1004.1378303,0-60.280132-5.606219-119.2276173-15.8046319-176.569352-19.534525-9.7027799-40.7961802-15.4329073-73.6394697-15.4329073-12.1002505,0-22.4729222.8648295-31.9051265,2.3466718Z"/>
  <path class="cls-1" d="M2313.0571888,1072.0471743c-31.8798391-7.5078325-57.5366661-19.2614215-79.1951139-31.5586898,5.2850689,43.0417034,8.322087,86.7509945,8.322087,131.1784481,0,590.2764645-480.2382805,1070.5172859-1070.5172589,1070.5172859-590.2764496,0-1070.5172589-480.2408214-1070.5172589-1070.5172859,0-44.3288327,3.0142594-87.9622615,8.2993283-130.9078728-21.732001,12.2972683-47.4138957,24.0028112-79.369597,31.4625976l-26.0283322,6.0740363c-2.4452926,30.843056-4.0510432,61.9086413-4.0510432,93.3712389,0,647.0998073,524.5671121,1171.6669326,1171.666903,1171.6669326,647.1023197,0,1171.666903-524.5671253,1171.666903-1171.6669326,0-31.4853563-1.6057506-62.5762289-4.0485145-93.4445724l-26.2281027-6.1751859Z"/>
  <path class="cls-1" d="M1898.6799704,1060.2177231c5.5581729,36.3506543,8.4459953,73.566138,8.4459953,111.4492095,0,405.5114624-329.9223231,735.4590812-735.4590626,735.4590812s-735.4590626-329.9476188-735.4590626-735.4590812c0-37.9564049,2.8903511-75.2452222,8.4712827-111.6464513-31.2400676-12.3225557-55.3162116-28.2510963-76.7017752-42.4246906-5.8034608-3.8512728-11.2351967-7.3839242-16.5961279-10.7673799-10.6434713,53.2906914-16.3230238,108.4096626-16.3230238,164.8385218,0,462.0617011,374.569776,836.6087279,836.6087068,836.6087279s836.6087068-374.5470268,836.6087068-836.6087279c0-56.3302383-5.6544912-111.3253012-16.272449-164.542659-5.1866745,3.3101222-10.4464562,6.741624-16.0777359,10.4715172-21.5094718,14.2722152-45.7348116,30.276618-77.2454545,42.6219324Z"/>
  <path class="cls-1" d="M1525.8921583,985.6148012c29.3637417,55.6373632,46.17987,118.8811798,46.17987,186.0521314,0,220.7692189-179.6291243,400.4008765-400.4008664,400.4008765-220.7692133,0-400.4008664-179.6316576-400.4008664-400.4008765,0-67.0723307,16.7933697-130.2402851,46.0559617-185.8296022-22.39706,6.4457612-39.2890505,17.6076248-60.6012806,31.7584603-20.5943257,13.6552023-43.7575948,28.8933966-73.318579,40.9934231-8.3954207,36.3987004-13.2857463,74.1325761-13.2857463,113.0777188,0,277.0008362,224.5496813,501.5505232,501.5505105,501.5505232s501.5505105-224.5496869,501.5505105-501.5505232c0-39.0437636-4.8905853-76.8762602-13.3340518-113.3735815-29.2400689-12.0772678-52.2539062-27.140979-72.6785481-40.6975604-21.5575179-14.2975026-38.522842-25.557987-61.3169143-31.9809895Z"/>
  <path class="cls-1" d="M1731.5959307,1077.160289c5.1611606,30.7697225,8.0009369,62.3031249,8.0009369,94.5066437,0,313.1542487-254.7757237,567.9299788-567.9299645,567.9299788s-567.9299645-254.7757301-567.9299645-567.9299788c0-32.1782314,2.8167562-63.688875,8.0006756-94.4080228-15.2101165,2.0735678-31.2878524,3.5554101-49.3632938,3.5554101-19.5092376,0-36.7704244-1.6790841-52.9695399-4.073802-4.3974808,31.0402978-6.817486,62.7001373-6.817486,94.9264147,0,369.5325331,299.5470849,669.0796256,669.0796087,669.0796256s669.0796087-299.5470925,669.0796087-669.0796256c0-32.2035188-2.4200052-63.835542-6.8149573-94.8277938-16.0271611,2.3441431-33.0911061,3.9751811-52.3525271,3.9751811-18.323258,0-34.5982358-1.5324171-49.9830967-3.654031Z"/>
</svg>