<?xml version="1.0" encoding="UTF-8"?>
<svg id="Layer_2" data-name="Layer 2" xmlns="http://www.w3.org/2000/svg" viewBox="0 0 785.8539048 773.5958957">
  <defs>
    <style>
      .cls-1 {
        fill: #4ec1b2;
      }
    </style>
  </defs>
  <g id="Layer_1-2" data-name="Layer 1">
    <g>
      <path class="cls-1" d="M638.9951763,513.0413571l-107.8041047-41.7424817c18.3726447-21.0550935,36.7077386-41.6760379,48.5272645-67.4010324,57.6483679-125.4706802-21.3792053-272.3259376-157.6309646-291.4193937-166.3625412-23.3129898-289.6168564,151.3285334-211.3878198,300.9075187,11.4479964,21.8893106,27.8602493,39.3638041,43.7736261,57.9129154l-107.8041121,41.7424738c-8.5075724-27.8448207-4.2140525-54.6189499-14.2147931-82.4462702-17.4625834-48.5900917-62.3586266-58.9038371-57.0843842-122.1016637,3.7940899-45.4621188,37.2889022-57.9420561,53.3487108-93.1398284,22.5287861-49.3756249-2.2048065-97.829923,54.7333895-134.4787069,33.6063081-21.6310037,65.2302429-10.3611257,100.0442823-24.0625766C323.2195304,41.1787823,336.7662348,3.4506086,385.6340223.2641054c61.7908369-4.0291716,70.8705524,39.1109124,116.5319833,56.5501711,45.6238009,17.4248868,87.481741-2.1483794,123.4442357,45.422474,25.8913298,34.2488102,14.5397037,62.1177092,25.5133023,98.5935566,12.9981539,43.2053963,54.741195,58.2289862,59.0647245,107.7692321,5.4582685,62.5424122-39.1534825,73.5399298-56.9830951,121.9907514-10.3784685,28.2028184-5.6065323,54.2035881-14.2099968,82.4510665Z"/>
      <path class="cls-1" d="M649.2043199,645.281543c6.0391865-3.8732502,23.9554807-30.7343322,29.1310604-30.2338993,15.3264801,10.2765624,102.1292086,51.923107,107.1448385,63.8325161,1.6275443,3.8645377-2.4681322,2.9205553-4.4731566,3.5619868-20.0045247,6.3996897-40.2484799,12.486902-60.5498317,17.8470836l14.1671218,73.1581107c-1.8419378,1.8948372-36.1653062-22.3631666-40.852766-25.2488618-36.4783796-22.4568295-73.8944476-43.9961042-113.524332-60.444454-2.9011605-4.5453707,13.2465426-48.9808951,13.635411-58.181737.0818084-1.9356326-.188773-2.3185029-1.5875008-3.5872264-4.9525804-4.4922644-33.6271051-14.6845032-41.7111054-17.3999308-90.1458053-30.2801094-198.631678-31.9748268-290.4365893-7.4853317-9.3260481,2.4877777-66.8756547,20.5352463-68.4235545,27.0765078.8158398,9.3922607,16.5163373,54.979361,13.0559129,59.915737-53.4001131,22.5278252-102.7990267,53.1414877-150.737255,85.3374342-3.3361045.3982651-3.3216507.3110138-2.9313654-2.905539,1.1738651-9.6744599,16.4696575-67.5525778,14.0955615-70.2344773L.1761835,681.8929083c-.7632217-3.3678123,1.0811894-4.1283136,3.0721852-6.0630172,5.1023295-4.9580695,18.8190985-12.880265,25.5733482-17.1513535,25.2926613-15.9939594,52.654044-28.6103826,78.5071448-43.6308939,5.1753469-.5006371,23.092025,26.3607769,29.1310604,30.2338993-2.4274856-25.7228684-24.6684569-63.3176093-5.7845443-86.1686568,6.8830599-8.329054,39.9714103-24.9006503,51.2226612-30.1589018,133.1972894-62.2495103,312.560142-60.8119158,442.2048667,10.1813774,7.4917264,4.1024603,23.4520319,12.4386435,28.9550263,17.8393804,21.602214,21.2007985-1.2028687,63.1659684-3.8536121,88.3068009Z"/>
      <path class="cls-1" d="M434.2553036,245.7792786c19.4981231,20.0418878,61.4238727,6.7225464,87.2986046,11.3904224,9.525264,1.718385,15.8551954,10.3709799,12.8142463,19.9596413-4.3030063,13.5681553-50.45333,35.3608021-61.0333,50.9031122-19.6333926,28.8420739,8.5783308,60.741266,12.6366413,88.8818446,1.8608636,12.9033444-6.4432209,24.0220388-19.9376577,19.9971077-11.5244537-3.4373523-39.04384-30.6709713-53.5047871-38.1772162-15.8067015-8.2047858-25.0616028-7.7225643-40.6666352.7616539-12.6374195,6.8707723-47.1946064,38.3387854-57.3532124,38.3802886-9.4368538.0385545-15.6639686-8.2848788-15.3761465-17.3359571.6155446-19.3568916,21.3709577-49.6154445,20.5177519-71.1820378-1.4977294-37.8583014-66.9978169-53.9640598-69.2270438-75.5648125-.3617293-3.5050832.3255728-6.8234848,2.2379998-9.7897392,12.1781083-18.8887559,77.6606156,6.3484452,99.5119547-19.0475058,13.6484984-15.8624876,21.1854868-70.867801,31.7020455-77.5794629,7.3357568-4.6816759,16.7936252-2.9687541,21.6270216,4.4110314,12.255078,18.7114485,12.4195834,57.2032023,28.7525168,73.9916295Z"/>
      <path class="cls-1" d="M470.1348637,614.7741499c2.3353338,2.0045389-12.1263281,15.5566484-14.2066888,17.3087224-45.3617371,38.2035294-105.2441192,30.4977269-140.4286545-16.281479,50.9529884-10.38257,103.4348187-8.4177285,154.6353433-1.0272434Z"/>
    </g>
  </g>
</svg>