<?xml version="1.0" encoding="UTF-8"?>
<svg id="Layer_2" data-name="Layer 2" xmlns="http://www.w3.org/2000/svg" viewBox="0 0 879.1369809 879.7330689">
  <defs>
    <style>
      .cls-1 {
        fill: #4ec1b2;
      }
    </style>
  </defs>
  <g id="Layer_1-2" data-name="Layer 1">
    <path class="cls-1" d="M575.1142643,357.2185224c127.2599661,159.7828943,72.8950978,398.336571-109.4738445,488.3452503C218.6887583,967.4474259-55.7584868,744.1557673,9.8533639,477.6668421c55.2853136-224.5466887,331.0012399-318.7279335,512.1419278-173.5672915l-23.6691206-96.3839999c-.8927937-6.1523289,1.9028514-11.8196532,4.3643323-17.2355076L651.0802114,11.1119037c14.1263216-17.4961941,40.8542972-13.6627943,50.0005872,6.8047379l19.5703053,95.7860149c2.3302336,2.9074684,1.8376151,1.1960295,3.6923562-.0236591,6.0298373-3.965256,12.1331398-13.8487097,18.3187532-18.3092848,29.6812182-21.4037467,61.564717,11.2347516,43.850221,38.3572656-2.8242102,4.3241241-22.7393483,21.3573325-22.7647547,22.9742686,1.5919465,2.6869728,3.8873513,2.2057226,6.2432587,2.8754727,24.2803097,6.9025385,74.4457402,9.6429606,93.8819482,19.6426713,15.1596633,7.7994764,19.7257803,28.441708,10.5301249,42.3981644-60.8667845,53.3092299-124.0390627,104.3038747-186.310391,156.0956535l-9.7037101,3.146613c-34.9113118-3.854234-68.8175791-16.3704956-103.2746458-23.6412994ZM571.4610439,263.8084353l5.495611-2.7258676,92.4144388-92.5082346c4.6748785-10.1812955-11.0297122-57.4982056-11.8828548-71.3775814-33.871334,35.9766777-64.2618823,75.6365052-96.0623179,113.6217358-3.8194048,10.7044908,10.7335153,39.8877255,10.035123,52.9899478ZM782.0170628,221.7255757c-13.8793758-.8531427-61.1962858-16.5577334-71.3775814-11.8828548l-92.5082346,92.4144388-2.7258676,5.495611c13.1022223-.6983923,42.285457,13.8545278,52.9899478,10.035123,37.9852305-31.8004356,77.6450581-62.1909839,113.6217358-96.0623179ZM303.7420925,293.6530166c-247.1476466,16.8791114-335.6487917,339.8039591-130.2031746,480.6860405,218.3924294,149.760216,497.482816-83.3927308,389.6119757-325.525426-3.6989656-8.3028974-29.1182942-56.1207456-36.307113-54.8516704-4.7250154.8341287-52.5842716,54.5214608-61.2824691,61.1826767,92.9279606,132.041707-25.0093833,309.0026458-183.4337485,272.86128-61.0005532-13.9160621-112.5605137-63.3379769-129.0613848-123.6227254-43.8877434-160.3407214,135.7853416-285.573483,271.0058973-190.8571411,6.7362496-8.4900114,60.3707348-56.545799,61.1805087-61.1559404.8760805-4.9876325-33.0561906-25.3131786-38.9144058-28.4416088-43.4420273-23.199105-93.3837554-33.6364736-142.5960859-30.275485ZM309.2339203,440.134739c-149.0260885,15.1319724-131.0890331,245.616276,23.2365517,233.8087007,84.3643601-6.4547854,136.4452988-104.0406284,89.7500976-175.720701l-42.1555162,42.145175c3.7462235,25.1553838-2.9232372,50.2429881-24.8373415,64.7790076-64.0857306,42.5092175-126.1211838-50.7606034-70.0150282-93.8186038,16.4359197-12.6135507,33.5019979-14.573796,53.633217-12.1795564l42.1419739-42.1564463c-20.4419605-14.0897168-47.1874775-19.3520333-71.7539544-16.8575758Z"/>
  </g>
</svg>