<?xml version="1.0" encoding="UTF-8"?>
<svg id="Layer_2" data-name="Layer 2" xmlns="http://www.w3.org/2000/svg" viewBox="0 0 647.5210201 738.7475914">
  <defs>
    <style>
      .cls-1 {
        fill: #4ec1b2;
      }
    </style>
  </defs>
  <g id="Layer_1-2" data-name="Layer 1">
    <g>
      <path class="cls-1" d="M647.5210201,115.5466096v357.9605639c0,.9084288-6.3528344,10.6683196-7.7505255,12.0095056-3.4119988,3.2740607-8.8203432,5.4916834-13.4506245,6.3094066-7.058163,1.2464953-59.7756197,1.7585008-63.8907121-.1071556-2.2677933-1.0281477-6.3264219-6.7864202-9.2759886-8.9640401-28.9332469-21.3609721-65.5623752-22.1333318-94.8722806-.8875366-3.214216,2.3298804-7.824073,9.3994038-10.9514617,10.3285718-10.7901192,3.2058161-33.8366476-1.7431075-46.0562605.3191051-2.7727096-103.3574766-152.2725135-103.187956-155.0253104.0000024-12.219615-2.0622174-35.2661416,2.8867092-46.0562632-.3191075-3.1273888-.929168-7.7372457-7.9986913-10.9514617-10.3285718-29.3470457-21.272717-65.8893867-20.5112433-94.8722805.8875366-2.9494249,2.1776326-7.0083298,7.9359532-9.2759887,8.96404-4.1150923,1.8656563-56.832549,1.3536509-63.8907121.1071556-4.6302813-.8177233-10.0386257-3.0353459-13.4506245-6.3094066-1.397691-1.3411861-7.7505255-11.1010768-7.7505255-12.0095056V115.5466096h647.5210201ZM317.2582827,155.4168901c-5.6666625,1.169542-12.5103438,6.7563545-16.2610669,11.0865413-6.9890892,8.0688606-21.6542136,35.8011079-28.3220369,40.0780709-10.1463368,6.5081968-36.3157648,7.429971-48.7819543,13.5381439-15.1076721,7.4024442-20.8384666,26.3952146-13.4690189,41.4431691,5.1385471,10.492594,29.1629158,31.2969827,30.9299724,38.9804064,1.6877849,7.3387389-1.124909,12.8955785-1.2563723,19.3809768-.2523578,12.449409-2.4080304,34.5197345,4.6306492,44.1347333,7.3010866,9.9734529,16.8798333,12.9706669,28.9507163,10.7177067,13.3287377-2.4877315,38.1173783-16.9685544,49.4513441-17.4724274,10.3124672-.4584603,38.9968234,15.7948969,51.9083733,17.7917724,11.7153219,1.8118692,21.8445399-2.0100221,28.4184397-11.8922911,6.0814434-9.1419798,4.2521933-31.5608728,3.9659689-43.2794427-.1574856-6.4477609-3.0594794-12.1750941-1.2068696-19.330685,1.9731956-7.6213459,25.1979507-28.1103416,30.3405848-38.0502813,7.9931866-15.4496297,3.0119391-34.853098-12.965594-42.3872602-12.102382-5.7068453-40.7922996-7.8746503-49.6474452-14.1926554-6.3430246-4.5256469-20.0210994-30.5806774-26.7529773-38.6071256-7.5493072-9.0010728-17.7821137-14.4471134-29.9327133-11.9393521Z"/>
      <path class="cls-1" d="M103.3601628,38.0264875h91.2001437V6.8664384c0-4.726388,11.180436-7.4997555,15.8628615-6.7426501,4.0834249.6602525,9.9771792,6.3111722,9.9771792,9.7826549v28.1200443h89.6801413V12.946448c0-17.2015847,27.3600431-17.1948425,27.3600431,0v25.0800395h89.6801413V9.9064432c0-3.4714828,5.8937542-9.1224024,9.9771792-9.7826549,4.6824255-.7571054,15.8628615,2.0162622,15.8628615,6.7426501v31.1600491h91.2001437V8.3864408c0-10.7858085,25.8400407-10.7858085,25.8400407,0v29.6400467h57.0000898c1.7784679,0,12.0098376,5.8800437,13.6844747,7.5955588,1.2455991,1.2760043,6.8355576,10.7396651,6.8355576,11.4044711v32.6800515H0v-32.6800515c0-.664806,5.5899585-10.1284669,6.8355576-11.4044711,1.6746371-1.7155151,11.9060069-7.5955588,13.6844747-7.5955588h57.0000898V8.3864408c0-10.2249055,25.8400407-12.116723,25.8400407,1.5200024v28.1200443Z"/>
      <path class="cls-1" d="M414.9606537,738.7475914h-182.4002874v-85.8801353c0-40.1025388,42.9646629-78.800791,81.5051296-82.6555905,47.5451798-4.7554467,100.8951578,34.6288319,100.8951578,84.1755929v84.3601329Z"/>
      <path class="cls-1" d="M206.7203257,738.7475914H51.6800814v-38.7600611c0-4.8567774,6.7534193-23.539601,9.3083869-28.6916729,27.1413381-54.7302917,102.6264795-65.8055454,145.7318573-22.9884085v90.4401425Z"/>
      <path class="cls-1" d="M595.8409387,738.7475914h-155.0402443v-85.8801353c0-.5666573-1.5409037-.7979586-.1881155-3.0403275,10.5716453-17.5234587,48.4761156-28.8347973,67.9073757-28.1849261,38.1650741,1.2764165,87.320984,37.9771585,87.320984,78.3453278v38.7600611Z"/>
      <path class="cls-1" d="M286.2970884,528.4506657c-45.4939576-46.1939233,21.6870915-118.0927032,70.9189441-76.2389955,54.6409139,46.4521385-20.2111039,127.7270218-70.9189441,76.2389955Z"/>
      <path class="cls-1" d="M133.3939338,492.8995338c72.4400914-9.9193312,80.8474073,95.360168,16.1630379,102.8041593-70.2000045,8.0787404-79.4028631-94.1446345-16.1630379-102.8041593Z"/>
      <path class="cls-1" d="M496.6745062,492.8995338c72.3491886-9.9068828,81.4727065,96.0035246,14.6179129,102.7743221-69.0131264,6.9893851-77.4382599-94.1722378-14.6179129-102.7743221Z"/>
      <path class="cls-1" d="M381.5113241,349.6205651l-58.3810396-19.675613-57.1205887,19.6756128c-1.5471844-19.9197352,3.1987286-39.5048615.8349822-59.357935-8.6412801-14.0786941-24.270162-26.5721004-32.822015-40.1801803-.9833835-1.5648026-2.0227662-1.5916284-.8083255-3.8486756,3.2025721-5.9520046,46.4335996-11.2160634,55.5261867-17.5069167,9.8186218-6.7931721,22.770578-35.3148511,32.2130966-45.3062829,1.0490956-1.1100817,1.3472101-3.0694161,3.5506305-2.511917,3.7589775.951079,26.8253513,42.9346594,34.2644334,47.8300112,10.2775459,6.7632274,37.0548523,8.3445241,49.8016719,14.0384004,8.8165319,3.9382563,6.9694925,5.0088972,1.7877466,11.8108392-5.1957334,6.820303-28.079829,30.4963705-29.6796028,35.676887-3.1305521,10.137606,3.2980354,56.5800753.8328238,59.3557701Z"/>
    </g>
  </g>
</svg>