<?xml version="1.0" encoding="UTF-8"?>
<svg id="Layer_2" data-name="Layer 2" xmlns="http://www.w3.org/2000/svg" viewBox="0 0 823.395753 540.3534629">
  <defs>
    <style>
      .cls-1 {
        fill: #4ec1b2;
      }
    </style>
  </defs>
  <g id="Layer_1-2" data-name="Layer 1">
    <g>
      <path class="cls-1" d="M0,144.7375347h59.5032087v320.8348686c0,.7019524,3.6932478,5.8994678,4.8127357,6.4446281l501.0327114.8569953c3.5457641.4809437,10.3850933-1.6732173,10.3850933-5.6934286V144.7375347h59.5032087v395.6159282H0V144.7375347Z"/>
      <path class="cls-1" d="M456.7273317,0v459.9437214H180.117821V0h276.6095108ZM406.5436157,225.4522673l-166.3636591-111.0143999c-3.0142483-1.9807812-6.9096429-2.7353438-10.3194306-1.1712612l-.7915323,232.5858698c1.6936159,2.4210515,6.4480268,1.9112252,8.8789352.6500183l168.0877692-113.3348787c.9634462-2.0578048,1.6441795-5.7753232.5079176-7.7153482Z"/>
      <polygon class="cls-1" points="823.395753 532.3124887 648.9144622 398.8244695 647.9763529 287.0107518 648.458632 284.9892199 823.395753 151.170314 823.395753 532.3124887"/>
      <rect class="cls-1" x="469.5928904" y="229.9718607" width="93.2753001" height="75.585157"/>
      <rect class="cls-1" x="73.9769622" y="229.9718607" width="91.6671053" height="75.585157"/>
      <rect class="cls-1" x="469.5928904" y="144.7375347" width="93.2753001" height="72.3687673"/>
      <rect class="cls-1" x="73.9769622" y="144.7375347" width="91.6671053" height="72.3687673"/>
      <path class="cls-1" d="M562.8681905,318.4225763v63.5236958c0,.1705748-2.2417174,2.4122922-2.4122922,2.4122922h-90.8630079v-65.935988h93.2753001Z"/>
      <rect class="cls-1" x="73.9769622" y="318.4225763" width="91.6671053" height="65.935988"/>
      <rect class="cls-1" x="469.5928904" width="93.2753001" height="62.7195984"/>
      <rect class="cls-1" x="469.5928904" y="397.224123" width="93.2753001" height="62.7195984"/>
      <rect class="cls-1" x="73.9769622" width="91.6671053" height="62.7195984"/>
      <rect class="cls-1" x="73.9769622" y="397.224123" width="91.6671053" height="62.7195984"/>
      <rect class="cls-1" x="469.5928904" y="75.585157" width="93.2753001" height="56.286819"/>
      <rect class="cls-1" x="73.9769622" y="75.585157" width="91.6671053" height="56.286819"/>
      <polygon class="cls-1" points="241.2292245 131.8719761 389.193536 229.1850793 241.2292245 329.6799401 241.2292245 131.8719761"/>
    </g>
  </g>
</svg>