<?xml version="1.0" encoding="UTF-8"?>
<svg id="Layer_2" data-name="Layer 2" xmlns="http://www.w3.org/2000/svg" viewBox="0 0 720.9416027 716.832376">
  <defs>
    <style>
      .cls-1 {
        fill: #4ec1b2;
      }
    </style>
  </defs>
  <g id="Layer_1-2" data-name="Layer 1">
    <g>
      <path class="cls-1" d="M718.6154009,285.5121956c3.1016024,48.3772574,3.1016024,119.5710929,0,167.9483504-2.4651886,38.4507904-19.9930513,72.5998355-54.5565894,91.6984324-8.950999,4.9460076-30.1590754,13.2692866-39.9143577,13.2692866h-31.4903157v-111.9655669c10.8871531.0021162,21.8939622,1.8450322,29.3826834-7.705896,11.1507973-14.2214487.9068547-35.1461534-17.4271181-34.3404154l-492.7119326.0550093c-25.4476646,2.7241763-25.7812365,39.0200995.0002277,41.9955189,4.666166.5385187,9.9432176-.374897,14.6994674-.0042169v111.9655669h-30.0907461c-16.3366608,0-44.8719567-14.5832236-57.3408161-25.2337895-24.867026-21.240748-35.2619203-49.6910102-37.1160959-81.8473189-2.7956743-48.4843843-2.6462954-113.8261387-.0717102-162.3937121,3.1589658-59.5914637,38.410201-101.7215699,98.6734787-108.4628201l521.9127687.2343916c56.2065415,5.9429745,92.5521236,50.212567,96.051056,104.7871796ZM109.4389074,270.4529916c-21.7192332,3.6558561-22.2352319,36.5813878-1.1133472,41.0287423,11.0394048,2.3244207,62.8427616,2.1282405,74.8308929.4987029,23.0775412-3.1369127,23.6747796-36.7440154,2.3004362-41.2412229-10.4182485-2.1920217-65.0776522-2.1277364-76.017982-.2862224Z"/>
      <path class="cls-1" d="M500.2825454,0c29.6933744,5.0081111,56.4085459,19.5515119,73.9404179,44.3232121,20.0615127,28.3459619,20.4656762,60.6099115,19.8307444,94.2341769H125.1978962c-.2800277-27.6547189-.7169806-55.9384455,11.8334164-81.2379611C151.6726898,27.8048437,185.9658028,3.3412474,218.9690585,0h281.3134869Z"/>
      <path class="cls-1" d="M552.0666201,446.4626981v227.4300578c0,18.0404621-13.9568225,36.8249959-31.5796475,41.197971-105.0437926,3.3530208-210.7712019.7196058-316.0578423,1.333349-20.3240874-2.4740396-37.2441465-22.2217586-37.2441465-42.53132v-227.4300578h384.8816363ZM299.7803712,494.3841254c-22.3196304,4.9577067-22.3132373,36.361496,0,41.3149647,36.7168564-2.8779297,82.8862101,5.059311,118.5037725.2124805,23.2971974-3.1702777,23.9429427-36.9576612,1.1870891-41.5274453h-119.6908616ZM299.7803712,583.956579c-22.3196304,4.9577067-22.3132373,36.361496,0,41.3149647,36.7168564-2.8779297,82.8862101,5.059311,118.5037725.2124805,23.2971974-3.1702777,23.9429427-36.9576612,1.1870891-41.5274453h-119.6908616Z"/>
    </g>
  </g>
</svg>