<?xml version="1.0" encoding="UTF-8"?>
<svg id="Layer_2" data-name="Layer 2" xmlns="http://www.w3.org/2000/svg" viewBox="0 0 784.9193159 558.2028851">
  <defs>
    <style>
      .cls-1 {
        fill: #4ec1b2;
      }
    </style>
  </defs>
  <g id="Layer_1-2" data-name="Layer 1">
    <g>
      <path class="cls-1" d="M784.9193159,349.5896454v32.1939563c-7.4537516,13.3288859-25.4150332,9.1077336-34.3816863,20.0414303-2.2709755,15.2614405-19.3489241,34.2568684-15.4810798,48.9967098,2.1651622,8.2511458,11.5012886,16.0547697,9.4059866,26.0725589-1.077872,5.1533832-21.6372411,26.0941328-26.5576875,27.2135763-13.5372355,3.0798367-23.5124497-12.5886692-36.0997985-10.0924552-9.5074674,7.798156-34.1540149,10.9288329-41.7898886,18.0456999-7.8281672,7.2960904-6.6336742,27.1184997-16.464174,31.0602369-5.101946,2.0457282-31.0277788,2.0077954-35.9983782.0023785-10.9120887-4.4025451-9.4602761-24.3910779-16.8411853-31.1056381-6.8870905-6.2653235-31.601022-9.8166013-40.2272827-17.5947407-15.1547316-4.6373357-24.3543317,13.8450112-39.5020261,8.817941-6.1211424-2.0314255-23.3911452-19.6541547-24.6178979-26.0189856-2.5244987-13.0980001,11.0360444-22.2896722,10.5112944-33.3318752-6.4536788-12.434396-9.8338327-27.0234372-15.8781145-39.4718064-6.8255278-14.0573674-29.4493207-10.2493724-34.0119327-21.1342664-1.7359082-4.141307-1.4063227-31.9701056.363619-36.3649101,4.4182479-10.9706075,23.8845135-8.3645561,31.0798221-16.4445897,6.240089-7.0073615,10.2732141-32.8711484,18.0289119-41.8066648,2.4986242-12.582716-13.1724641-22.5626334-10.0926063-36.0999614,1.1194436-4.9204465,22.060193-25.4798153,27.2135763-26.5576875,11.7232204-2.4520072,22.4904354,12.0531777,34.5627651,10.2031913l39.1632015-16.0885412c12.0693469-5.3037217,8.3043076-28.6020696,20.2475541-33.4090382,4.6562163-1.8740537,25.3518092-1.9147617,30.9331547-1.0639961,14.6900896,2.2392132,12.8394457,18.0813933,18.0864244,27.9049582,5.9146018,11.0735107,32.2169795,13.1644669,42.5161925,21.8594147,13.8814098,5.6510512,25.8874986-12.5690245,38.4080393-9.3075877,6.3053466,1.6424602,26.2309181,21.6082161,27.2992572,28.0560246,1.4296546,8.6284774-8.5542135,18.4727879-10.1146625,26.0127681-2.8817295,13.924315,13.1405557,31.2814128,14.6665629,45.9616852,7.3099946,14.1631441,29.0499623,8.0517478,35.572039,23.4502142ZM597.5708459,287.1845023c-62.5926432,5.8694431-92.6276517,81.0551378-51.7616848,129.0476748,29.0961631,34.1702103,84.2438957,36.2547725,115.5402248,3.717799,50.558664-52.562903,8.3639338-139.5304245-63.77854-132.7654738Z"/>
      <path class="cls-1" d="M0,33.0157416C2.5028878,15.3657774,21.4938312.4241546,39.0373987,0h527.4781905c21.7406243,1.8644727,36.5097286,15.8950336,39.0228058,37.6294712l.022088,121.8703005c-18.2124544-1.015724-35.6658689,3.3239544-45.7192739,19.4348835-3.0690467,4.9182534-6.3538369,18.0277049-7.9267752,19.6680446-1.0332336,1.0775084-26.2795998,10.9528768-27.7632316,10.6992987-4.896979-.8369778-11.5655754-6.8696137-19.4123889-8.0178159-25.5649322-3.7408446-55.5228503,20.4457177-62.457169,44.0566833-6.4881159,22.0916702,7.5612825,30.2009731,6.8879597,40.5135014-.0851984,1.304888-8.5583013,22.8975269-9.4366208,24.3915305-2.1057972,3.5819179-11.6851287,4.7246323-16.1359464,6.8597368-8.9495448,4.2931916-17.5812707,14.0965906-21.1995034,23.3105477-.7903921,2.0127613-.4320027,6.1073721-.7396023,6.1073721H0V33.0157416ZM319.9730377,73.9648914c-5.5683956,1.2651926-7.1349666,6.3939832-8.6781179,11.2610708-18.6589277,58.8501205-25.0413976,127.3953423-42.9119416,187.155259-1.6965062,16.6089731,19.6304959,19.8740218,24.8922291,4.8522798l43.6984999-189.4746584c.2019629-10.3791232-6.5386846-16.1710142-17.0006696-13.7939513ZM159.4486841,179.4414473l85.0579229-47.5591244c11.7948391-8.4873273,2.0354506-25.8774003-11.0062193-21.8365569-30.407551,17.241717-61.809574,33.0501843-91.9590597,50.7138938-12.2717214,7.1896458-32.642106,15.9548103-13.2566316,30.6510038,28.0744005,21.2832977,71.5449176,35.8985889,101.0562052,56.8415602,14.9090913,6.8060744,27.153063-6.7044786,16.3505981-19.8355438l-86.2428156-48.9752327ZM359.2608654,131.3663127l85.2923779,48.8214422-85.0871118,48.2594024c-10.1175202,11.88798.9779624,26.7056011,15.7074048,20.3015051,30.4088698-21.4223682,72.6432217-35.9782832,102.1199573-57.3127914,10.3793758-7.512327,9.0542931-16.0780482-.6172637-23.4112946l-102.6616222-56.7906868c-12.6666906-6.9249961-24.7399663,9.7662218-14.7537422,20.132423Z"/>
      <path class="cls-1" d="M400.1248856,372.5853285c-1.5195708,26.5895201,16.968632,39.7545955,39.8725823,47.1238927-.429152,7.4033649,8.8112564,18.7181101,9.1694679,24.2804447.1863052,2.8929616-4.9460618,15.6056114-8.3956238,15.9999703l-406.2821938-.0163055c-13.6417226-.2775343-34.4891182-19.757101-34.4891182-32.9648856v-54.4231166h400.1248856Z"/>
      <path class="cls-1" d="M363.123263,486.2378661l15.6912776,45.6269982c2.83138,2.445563,51.2475743-3.0047548,61.5850775,2.0411438,11.2071674,5.4703954,9.1171431,21.5272384-3.0703165,23.812717l-264.9209908.4244268c-17.1733976,1.4063285-20.6177458-22.4540588-4.1863713-25.7676253,10.3251252-2.0821745,52.7221285,1.9323067,57.1998526-1.0558868,6.8861251-14.5572259,9.7868708-31.4565221,17.7754081-45.079459l119.9260628-.0023146Z"/>
      <path class="cls-1" d="M594.4232909,313.1647747c87.0642416-13.5649897,80.2442099,121.7985613-1.4757298,103.454887-56.1982497-12.6148208-51.1903981-95.2492739,1.4757298-103.454887Z"/>
    </g>
  </g>
</svg>